# xmcd CD database file
#
# Track frame offsets:
#	150
#	27917
#	41597
#	60605
#
# Disc length: 1058 seconds
#
# Revision: 0
# Processed by: cddbd v1.5.1PL0 Copyright (c) Steve Scherf et al.
# Submitted via: CDex 1.51
#
DISCID=2c042004
DTITLE=DOPING PANDA - Remixes For 3years
DYEAR=1900
DGENRE=Rock
TTITLE0=Cubismo Grafico - GAME (*cbsmgrfc super mix)
TTITLE1=Your Song Is Good - Tabloid pubrock (tabloid pubrock is good mix)
TTITLE2=Let me free (dp mix)
TTITLE3=Halfby - Candy house (mod the halfby mix)
EXTD=
EXTT0=
EXTT1=
EXTT2=
EXTT3=
PLAYORDER=
